<?xml version="1.0" encoding="UTF-8"?>
<svg width="200px" height="50px" viewBox="0 0 200 50" version="1.1" xmlns="http://www.w3.org/2000/svg" xmlns:xlink="http://www.w3.org/1999/xlink">
    <!-- Generator: Sketch 48.2 (47327) - http://www.bohemiancoding.com/sketch -->
    <title>lOGO</title>
    <desc>Created with Sketch.</desc>
    <defs>
        <path d="M200,30 L200,50 L0,50 L0,30 L0,0 L200,0 L200,30 Z" id="path-1"></path>
    </defs>
    <g id="员工自助首页" stroke="none" stroke-width="1" fill="none" fill-rule="evenodd" transform="translate(0.000000, -5718.000000)">
        <g id="Group-32" transform="translate(0.000000, 5290.000000)">
            <g id="HEADER-Copy" transform="translate(0.000000, 428.000000)">
                <g id="lOGO">
                    <mask id="mask-2" fill="white">
                        <use xlink:href="#path-1"></use>
                    </mask>
                    <use id="BG" fill="#28283C" xlink:href="#path-1"></use>
                    <g id="YH" mask="url(#mask-2)" fill="#A8A8C3">
                        <g transform="translate(20.000000, 11.000000)">
                            <path d="M14.990533,9.67773333 C15.0576572,8.89454493 14.7228496,8.47413913 13.989568,8.41408116 C13.5457344,8.41753043 13.1659738,8.59303768 12.8478456,8.93695072 L9.82237265,12.5418493 L8.00533958,8.93695072 C7.81962916,8.59932754 7.50638267,8.42524058 7.05807405,8.41408116 C6.32031754,8.46926957 5.84922735,8.89190725 5.6594488,9.67773333 C5.61876743,9.95915362 5.64480351,10.2152116 5.74101493,10.4521971 L8.13084158,15.0360812 L7.34853898,19.6510087 C7.25517525,20.4453565 7.60706904,20.8541971 8.40320331,20.8824 C9.20666022,20.8541971 9.69931152,20.4453565 9.87851293,19.6510087 L10.662036,15.0360812 L14.6091452,10.4521971 C14.8129588,10.2040522 14.9392744,9.9490087 14.990533,9.67773333" id="Fill-46"></path>
                            <path d="M23.8813431,8.41446667 C23.0669022,8.4520029 22.5632669,8.90162609 22.385286,9.76151014 L21.7648952,13.4175391 L17.4408731,13.4175391 L18.0630946,9.76151014 C18.17029,8.90588696 17.8238882,8.45829275 17.0267369,8.41446667 C16.2212459,8.4520029 15.7261537,8.90162609 15.5471557,9.76151014 L13.8804403,19.5696261 C13.7661257,20.4047565 14.1094764,20.8418 14.9066277,20.8823797 C15.7245265,20.8418 16.2212459,20.4047565 16.3963792,19.5696261 L17.0344663,15.811742 L21.3584884,15.811742 L20.7187739,19.5696261 C20.6042559,20.4106406 20.9500475,20.8489014 21.7594032,20.8823797 C22.5734373,20.8418 23.0644613,20.4047565 23.2334924,19.5696261 L24.9016317,9.76151014 C25.014319,8.90162609 24.6758501,8.4520029 23.8813431,8.41446667" id="Fill-48"></path>
                            <path d="M27.1129078,14.0535246 C27.0748707,20.192829 22.269995,25.3405681 16.0351693,25.7303362 C15.3037184,25.7761913 14.5856924,25.7544812 13.8853627,25.6704812 C8.32788176,25.0098435 3.86371242,20.4724232 3.50103808,14.7028 C3.49025752,14.4873217 3.48232465,14.2683942 3.47845992,14.0535246 C3.42638778,8.05908986 7.92147495,2.9710029 13.8853627,2.26146667 C14.1062625,2.23407536 14.3306202,2.2150029 14.5564018,2.2003942 C21.069488,1.79216232 26.6816854,6.73051014 27.0897194,13.2277275 C27.1074158,13.5061043 27.1129078,13.7810319 27.1129078,14.0535246 M27.7697084,14.0535246 C27.7682846,13.7660174 27.7583176,13.4770899 27.7387906,13.1879594 C27.2803116,5.84526377 21.1608176,0.19737971 13.8853627,0.202857971 C13.595508,0.205292754 13.3064669,0.215437681 13.0143747,0.232481159 C5.65328557,0.69164058 -0.00549198397,6.7932058 -1.01668839e-14,14.0535246 C-1.01668839e-14,14.3416406 0.00935671343,14.6283362 0.0282735471,14.9186841 C0.491024048,22.2617855 6.60848397,27.9102783 13.8853627,27.9039884 C14.1701323,27.9039884 14.4622244,27.8924232 14.753503,27.8761913 C22.1164228,27.4150029 27.7752004,21.3118145 27.7697084,14.0535246" id="Fill-50"></path>
                        </g>
                    </g>
                    <text id="iHR" mask="url(#mask-2)" font-family="PingFangSC-Semibold, PingFang SC" font-size="20" font-weight="500" fill="#A8A8C3">
                        <tspan x="59" y="32">iHR</tspan>
                    </text>
                    <text id="员工自助" mask="url(#mask-2)" font-family="PingFangSC-Semibold, PingFang SC" font-size="16" font-weight="500" fill="#A8A8C3">
                        <tspan x="95" y="30">员工自助</tspan>
                    </text>
                </g>
            </g>
        </g>
    </g>
</svg>